<svg id="OBJECTS" xmlns="http://www.w3.org/2000/svg" viewBox="0 0 500 356.8"><defs><style>.cls-1{fill:#fff;}</style></defs><title>2119540ss</title><path class="cls-1" d="M0,78.85c21.77-4.14,56.15-7.25,91.1-7.25,49.84,0,81.93,7.77,106,25.39,20,13.47,32.08,34.19,32.08,61.65,0,33.68-24.64,63.21-65.31,76.68v1c36.67,8.28,79.65,35.74,79.65,87.56,0,30.05-13.19,52.85-32.66,69.95-26.92,22.28-70.47,32.64-133.5,32.64-34.38,0-60.72-2.08-77.34-4.14Zm49.84,143H95.11c52.7,0,83.64-24.87,83.64-58.54,0-40.94-34.36-57-84.78-57-22.91,0-36.11,1.56-44.12,3.11Zm0,167.36c9.74,1.55,24.08,2.07,41.82,2.07,51.56,0,99.12-17.1,99.12-67.87,0-47.68-45.25-67.35-99.68-67.35H49.84Z" transform="translate(0 -71.6)"/><path class="cls-1" d="M328.09,321c1,53.94,39.1,76.15,83.2,76.15,31.58,0,50.63-5,67.16-11.33L486,414.35c-15.54,6.35-42.11,14.05-80.71,14.05-74.66,0-119.27-44.87-119.27-111s43.11-118.3,113.76-118.3C479,199.06,500,262.06,500,302.4A137,137,0,0,1,498.5,321Zm129.32-28.55c.5-25.38-11.53-64.81-61.16-64.81-44.6,0-64.15,37.17-67.66,64.81Z" transform="translate(0 -71.6)"/><rect class="cls-1" x="306.13" y="30.48" width="155.71" height="40.48"/></svg>