<svg id="OBJECTS" xmlns="http://www.w3.org/2000/svg" viewBox="0 0 500 500"><defs><style>.cls-1{fill:#fff;}</style></defs><title>2119540s</title><path class="cls-1" d="M130.47,454.45ZM369.53,27.24h0Z"/><path class="cls-1" d="M250,400.49c82.24,0,149.15-67.49,149.15-150.45S332.24,99.49,250,99.49,100.85,167,100.85,250,167.76,400.49,250,400.49ZM137,250C137,187.13,187.71,136,250,136S363,187.13,363,250,312.29,364,250,364,137,312.91,137,250Z"/><path class="cls-1" d="M398.75,500H101.26C45.42,500,0,454.16,0,397.82V102.18C0,45.84,45.42,0,101.26,0H398.75C454.58,0,500,45.84,500,102.18V397.82C500,454.16,454.58,500,398.75,500ZM101.26,37.28c-35.46,0-64.31,29.12-64.31,64.9V397.82c0,35.78,28.85,64.9,64.31,64.9H398.75c35.46,0,64.31-29.12,64.31-64.9V102.18c0-35.78-28.85-64.9-64.31-64.9Z"/></svg>