<svg id="Layer_1" data-name="Layer 1" xmlns="http://www.w3.org/2000/svg" xmlns:xlink="http://www.w3.org/1999/xlink" viewBox="0 0 1208.16 1286.81"><defs><style>.cls-1{fill:url(#linear-gradient);}.cls-2{fill:url(#linear-gradient-2);}.cls-3{fill:url(#linear-gradient-3);}.cls-4{fill:#ebf7f7;}.cls-5{fill:url(#linear-gradient-4);}.cls-6{fill:url(#linear-gradient-5);}.cls-7{fill:url(#linear-gradient-6);}.cls-8{fill:#f0fbfc;}.cls-9{fill:url(#linear-gradient-7);}.cls-10{fill:url(#linear-gradient-8);}.cls-11{fill:url(#linear-gradient-9);}.cls-12{fill:url(#linear-gradient-10);}.cls-13{fill:url(#linear-gradient-11);}.cls-14{fill:url(#linear-gradient-12);}.cls-15,.cls-16{fill:#fff;}.cls-16{opacity:0.67;}.cls-17{fill:#ced6d6;}.cls-18{fill:#ebf2f2;}.cls-19,.cls-20,.cls-23,.cls-28,.cls-29{fill:none;stroke-miterlimit:10;}.cls-19{stroke:#cc7a88;stroke-width:3px;}.cls-20{stroke:#fff;stroke-width:5px;}.cls-21{fill:#cc7a88;}.cls-22{fill:#aa6372;}.cls-23{stroke:#96aaa8;}.cls-24{fill:#bececd;}.cls-25,.cls-26,.cls-27{opacity:0.64;}.cls-25{fill:url(#linear-gradient-13);}.cls-26{fill:url(#linear-gradient-14);}.cls-27{fill:url(#linear-gradient-15);}.cls-28,.cls-29{stroke:#d5e0e0;stroke-width:2px;}.cls-28{opacity:0.46;}.cls-29{opacity:0.17;}</style><linearGradient id="linear-gradient" x1="393.58" y1="575.18" x2="239.27" y2="842.46" gradientUnits="userSpaceOnUse"><stop offset="0" stop-color="#c7d1d3"/><stop offset="0.71" stop-color="#374147" stop-opacity="0"/></linearGradient><linearGradient id="linear-gradient-2" x1="789.36" y1="585.34" x2="907.61" y2="1026.67" gradientUnits="userSpaceOnUse"><stop offset="0" stop-color="#a7b5b7"/><stop offset="0.71" stop-color="#374147" stop-opacity="0"/></linearGradient><linearGradient id="linear-gradient-3" x1="557.52" y1="591.99" x2="557.52" y2="1086.16" gradientUnits="userSpaceOnUse"><stop offset="0" stop-color="#d7e1e2"/><stop offset="0.71" stop-color="#374147" stop-opacity="0"/></linearGradient><linearGradient id="linear-gradient-4" x1="856.43" y1="912.38" x2="760.1" y2="1079.23" xlink:href="#linear-gradient"/><linearGradient id="linear-gradient-5" x1="1011.59" y1="917.69" x2="1084.04" y2="1188.08" xlink:href="#linear-gradient-2"/><linearGradient id="linear-gradient-6" x1="916.81" y1="927.18" x2="916.81" y2="1217.44" xlink:href="#linear-gradient-3"/><linearGradient id="linear-gradient-7" x1="1787.95" y1="1054.44" x2="1721.52" y2="1169.51" gradientTransform="matrix(-1, 0, 0, 1, 2085.44, -104.42)" xlink:href="#linear-gradient"/><linearGradient id="linear-gradient-8" x1="1869.68" y1="1057.83" x2="1919.27" y2="1242.87" gradientTransform="matrix(-1, 0, 0, 1, 2085.44, -104.42)" xlink:href="#linear-gradient-2"/><linearGradient id="linear-gradient-9" x1="1818.06" y1="1065.84" x2="1818.06" y2="1260.98" gradientTransform="matrix(-1, 0, 0, 1, 2085.44, -104.42)" xlink:href="#linear-gradient-3"/><linearGradient id="linear-gradient-10" x1="1457.94" y1="1241.45" x2="1409.57" y2="1325.24" gradientTransform="matrix(-1, 0, 0, 1, 2085.44, -104.42)" xlink:href="#linear-gradient"/><linearGradient id="linear-gradient-11" x1="1513.32" y1="1243.87" x2="1549.36" y2="1378.39" gradientTransform="matrix(-1, 0, 0, 1, 2085.44, -104.42)" xlink:href="#linear-gradient-2"/><linearGradient id="linear-gradient-12" x1="1477.97" y1="1249.94" x2="1477.97" y2="1391.23" gradientTransform="matrix(-1, 0, 0, 1, 2085.44, -104.42)" xlink:href="#linear-gradient-3"/><linearGradient id="linear-gradient-13" x1="906.76" y1="10.5" x2="985.24" y2="146.43" gradientUnits="userSpaceOnUse"><stop offset="0" stop-color="#a7b5b7"/><stop offset="1" stop-color="#374147" stop-opacity="0"/></linearGradient><linearGradient id="linear-gradient-14" x1="1972.89" y1="634.84" x2="2023.84" y2="723.09" gradientTransform="matrix(-1, 0, 0, 1, 2049.31, -104.42)" xlink:href="#linear-gradient-13"/><linearGradient id="linear-gradient-15" x1="833.29" y1="790.96" x2="882.06" y2="839.73" gradientTransform="translate(316 -104.42)" xlink:href="#linear-gradient-13"/></defs><title>66</title><polygon class="cls-1" points="233.32 482.66 399.54 934.99 449.45 670.68 233.32 482.66"/><polygon class="cls-2" points="1011.39 525.85 836.86 926.1 685.58 1086.16 709.66 662.21 1011.39 525.85"/><polygon class="cls-3" points="715.5 659.57 709.66 662.21 648.71 591.99 449.45 627.1 449.45 670.68 399.54 934.99 685.58 1086.16 709.51 664.77 715.5 659.57"/><polygon class="cls-4" points="584.22 408.13 233.32 482.66 449.45 670.68 709.66 662.21 1011.39 525.85 731.7 458.94 668.13 408.13 584.22 408.13"/><polygon class="cls-5" points="770.85 862.97 845.68 1128.65 868.15 973.4 770.85 862.97"/><polygon class="cls-6" points="1121.16 888.34 1042.58 1123.42 974.47 1217.44 985.31 968.43 1121.16 888.34"/><polygon class="cls-7" points="987.94 966.88 985.31 968.43 957.87 927.18 868.15 947.8 868.15 973.4 845.68 1128.64 974.47 1217.44 985.24 969.93 987.94 966.88"/><polygon class="cls-8" points="928.83 819.19 770.85 862.97 868.15 973.4 985.31 968.43 1121.16 888.34 995.23 849.04 966.61 819.19 928.83 819.19"/><polygon class="cls-9" points="352.53 918.25 308.87 1096.87 295.76 992.5 352.53 918.25"/><polygon class="cls-10" points="148.18 935.31 194.01 1093.36 233.75 1156.57 227.42 989.15 148.18 935.31"/><polygon class="cls-11" points="225.89 988.11 227.42 989.15 243.43 961.42 295.76 975.29 295.76 992.5 308.87 1096.87 233.75 1156.57 227.46 990.16 225.89 988.11"/><polygon class="cls-8" points="260.37 888.82 352.53 918.25 295.76 992.5 227.42 989.15 148.18 935.31 221.64 908.89 238.33 888.82 260.37 888.82"/><polygon class="cls-12" points="666.92 1114.27 636.44 1243.59 627.28 1168.03 666.92 1114.27"/><polygon class="cls-13" points="524.22 1126.62 556.23 1241.05 583.98 1286.81 579.56 1165.6 524.22 1126.62"/><polygon class="cls-14" points="578.49 1164.85 579.56 1165.6 590.74 1145.53 627.28 1155.57 627.28 1168.03 636.44 1243.59 583.98 1286.81 579.59 1166.34 578.49 1164.85"/><polygon class="cls-8" points="602.57 1092.96 666.92 1114.27 627.28 1168.03 579.56 1165.6 524.22 1126.62 575.52 1107.49 587.18 1092.96 602.57 1092.96"/><path class="cls-15" d="M736.35,576.74a27,27,0,0,0-4,.18c-10.38,1.24-20.54,4.21-30.76,6.24-12,2.38-23.95,4.94-35.8,7.92-6.39,1.6-44.15,8.55-42.59,19,.38,2.52,3.95,4,6,4.81,36.92,14.86,28.2,27.36,3.08,37.09s35.89,35.2,74.86,27.21,79.48-9,102-4,85.11-13.48,61.52-29-20-25.47,7.7-27,2.56-21.48-25.13-32c-12.52-4.74-23.87-11.79-35.94-17.4-5.27-2.45-11.66-3.81-16.87-1.23-3.3,1.63-5.64,4.59-8.33,7.07a35.48,35.48,0,0,1-26.37,8.87C755.42,583.87,746.77,577,736.35,576.74Z" transform="translate(-143.26 -104.42)"/><path class="cls-15" d="M527.1,585.17a5.88,5.88,0,0,0-1,.05c-2.59.35-5.12,1.2-7.67,1.79-3,.68-6,1.41-8.92,2.26-1.59.46-11,2.45-10.62,5.44.09.72,1,1.14,1.5,1.38,9.2,4.25,7,7.83.77,10.61s8.95,10.07,18.66,7.78,19.81-2.57,25.44-1.14,21.22-3.86,15.34-8.29-5-7.29,1.92-7.71.64-6.14-6.26-9.14c-3.12-1.36-6-3.37-9-5a4.41,4.41,0,0,0-4.21-.35,10,10,0,0,0-2.08,2,8.16,8.16,0,0,1-6.57,2.54C531.85,587.21,529.69,585.25,527.1,585.17Z" transform="translate(-143.26 -104.42)"/><path class="cls-15" d="M949.65,633a5.88,5.88,0,0,0-1,.05c-2.59.35-5.12,1.2-7.67,1.79-3,.68-6,1.41-8.92,2.26-1.59.46-11,2.45-10.62,5.44.09.72,1,1.14,1.5,1.38,9.2,4.25,7,7.83.77,10.61s8.95,10.07,18.66,7.78,19.81-2.57,25.44-1.14,21.22-3.86,15.34-8.29-5-7.29,1.92-7.71.64-6.14-6.26-9.14c-3.12-1.36-6-3.37-9-5a4.41,4.41,0,0,0-4.21-.35,10,10,0,0,0-2.08,2,8.16,8.16,0,0,1-6.57,2.54C954.41,635,952.25,633.05,949.65,633Z" transform="translate(-143.26 -104.42)"/><path class="cls-15" d="M680.39,711.29a3.29,3.29,0,0,0-.59,0c-1.53.22-3,.75-4.54,1.12-1.77.43-3.53.88-5.28,1.42-.94.29-6.52,1.53-6.29,3.41.06.45.58.71.89.86,5.45,2.66,4.16,4.9.45,6.64s5.3,6.3,11,4.87,11.73-1.61,15.06-.72,12.56-2.41,9.08-5.19-3-4.56,1.14-4.83.38-3.84-3.71-5.72c-1.85-.85-3.52-2.11-5.3-3.12a2.49,2.49,0,0,0-2.49-.22,6.09,6.09,0,0,0-1.23,1.27,4.69,4.69,0,0,1-3.89,1.59C683.2,712.57,681.92,711.35,680.39,711.29Z" transform="translate(-143.26 -104.42)"/><path class="cls-16" d="M757.85,655.49a9.63,9.63,0,0,0-1.51.07c-3.91.49-7.74,1.68-11.6,2.49-4.52.95-9,2-13.5,3.16-2.41.64-16.64,3.41-16.06,7.59.14,1,1.49,1.59,2.26,1.92,13.92,5.93,10.63,10.91,1.16,14.79s13.53,14,28.22,10.85,30-3.59,38.47-1.59,32.09-5.38,23.19-11.55-7.54-10.16,2.9-10.76,1-8.57-9.47-12.75c-4.72-1.89-9-4.7-13.55-6.94-2-1-4.39-1.52-6.36-.49a14.66,14.66,0,0,0-3.14,2.82,12.92,12.92,0,0,1-9.94,3.54C765,658.34,761.78,655.61,757.85,655.49Z" transform="translate(-143.26 -104.42)"/><path class="cls-16" d="M860.57,602.46a9.63,9.63,0,0,0-1.51.07c-3.91.49-7.74,1.68-11.6,2.49-4.52.95-9,2-13.5,3.16-2.41.64-16.64,3.41-16.06,7.59.14,1,1.49,1.59,2.26,1.92,13.92,5.93,10.63,10.91,1.16,14.79s13.53,14,28.22,10.85,30-3.59,38.47-1.59,32.09-5.38,23.19-11.55-7.54-10.16,2.9-10.76,1-8.57-9.47-12.75c-4.72-1.89-9-4.7-13.55-6.94-2-1-4.39-1.52-6.36-.49a14.66,14.66,0,0,0-3.14,2.82,12.92,12.92,0,0,1-9.94,3.54C867.77,605.3,864.5,602.58,860.57,602.46Z" transform="translate(-143.26 -104.42)"/><path class="cls-16" d="M637.84,632.87a9.63,9.63,0,0,0-1.51.07c-3.91.49-7.74,1.68-11.6,2.49-4.52.95-9,2-13.5,3.16-2.41.64-16.64,3.41-16.06,7.59.14,1,1.49,1.59,2.26,1.92,13.92,5.93,10.63,10.91,1.16,14.79s13.53,14,28.22,10.85,30-3.59,38.47-1.59,32.09-5.38,23.19-11.55-7.54-10.16,2.9-10.76,1-8.57-9.47-12.75c-4.72-1.89-9-4.7-13.55-6.94-2-1-4.39-1.52-6.36-.49a14.66,14.66,0,0,0-3.14,2.82,12.92,12.92,0,0,1-9.94,3.54C645,635.71,641.77,633,637.84,632.87Z" transform="translate(-143.26 -104.42)"/><polygon class="cls-17" points="630.02 202.39 620.52 202.39 620.52 174.59 625.14 174.59 630.02 202.39"/><path class="cls-15" d="M777.47,281.1c-6.58,12.21-19.1,18.44-28,13.91s-10.7-18.1-4.12-30.31,19.1-18.44,28-13.91S784.05,268.89,777.47,281.1Z" transform="translate(-143.26 -104.42)"/><path class="cls-18" d="M766.6,276.52c-3.89,6.82-10.53,10.46-14.83,8.13s-4.63-9.75-.74-16.57,10.53-10.46,14.83-8.13S770.49,269.7,766.6,276.52Z" transform="translate(-143.26 -104.42)"/><path class="cls-18" d="M773.35,250.79l-.17-.08c5,6.15,5.17,16.93-.16,26.81-6.54,12.13-18.94,18.35-27.79,14a13.23,13.23,0,0,0,4.28,3.5c8.86,4.53,21.38-1.7,28-13.91S782.21,255.32,773.35,250.79Z" transform="translate(-143.26 -104.42)"/><line class="cls-19" x1="595.77" y1="219.5" x2="556.8" y2="510.5"/><polyline class="cls-19" points="559.5 489.4 632.04 467.46 568.76 420.29 626.92 388.12 579.16 342.59 622.4 318.19 586.31 289.21 619.14 267.63 591.61 249.65 617.17 237.25 595.77 218.55"/><line class="cls-20" x1="614.69" y1="218.55" x2="595.77" y2="511.44"/><line class="cls-20" x1="633.71" y1="219.5" x2="672.68" y2="510.5"/><polyline class="cls-20" points="670.73 495.96 598.19 474.02 661.47 426.85 603.31 394.67 651.07 349.15 607.83 324.75 643.92 295.77 611.1 274.19 638.62 256.21 613.06 243.81 634.46 225.11"/><rect class="cls-21" x="590.34" y="197.4" width="49.6" height="25.64"/><rect class="cls-22" x="733.6" y="301.81" width="24.8" height="25.64" transform="translate(1348.73 524.85) rotate(180)"/><line class="cls-23" x1="595.77" y1="151.52" x2="631.59" y2="148.87"/><line class="cls-23" x1="593.92" y1="157.7" x2="614.05" y2="187.43"/><line class="cls-23" x1="593.92" y1="156.2" x2="604.71" y2="156.2"/><line class="cls-23" x1="591.82" y1="158.88" x2="598.58" y2="179.41"/><circle class="cls-24" cx="593.38" cy="154.61" r="4.81"/><path class="cls-15" d="M681.67,606.8s4.24,2.33,21.09,6.66,29.71-7.66,36.27-6.66,4,4.66,19,5.33,24.17,3.55,35.45-1.55,16.07-.22,31.11,0,10.6,3.55,0,6.55-48.79,10.65-66.61,10.65-52.69-2.39-65-10.52S681.67,606.8,681.67,606.8Z" transform="translate(-143.26 -104.42)"/><ellipse class="cls-15" cx="422.25" cy="285.95" rx="6.78" ry="6.78"/><ellipse class="cls-15" cx="517.69" cy="199.14" rx="6.78" ry="6.78"/><ellipse class="cls-15" cx="731.8" cy="343.12" rx="6.78" ry="6.78"/><ellipse class="cls-15" cx="855.27" cy="374.02" rx="6.78" ry="6.78"/><ellipse class="cls-15" cx="462.44" cy="482.66" rx="6.78" ry="6.78"/><circle class="cls-15" cx="502.29" cy="383.85" r="4.94"/><circle class="cls-15" cx="404.48" cy="403.19" r="4.94"/><circle class="cls-15" cx="540.15" cy="297.66" r="4.94"/><circle class="cls-15" cx="762.77" cy="439.38" r="4.94"/><circle class="cls-15" cx="783.12" cy="242.47" r="4.94"/><circle class="cls-15" cx="695.4" cy="192.36" r="4.94"/><circle class="cls-25" cx="946" cy="78.47" r="78.47"/><circle class="cls-26" cx="50.94" cy="574.55" r="50.94"/><circle class="cls-27" cx="1173.68" cy="710.93" r="34.49"/><ellipse class="cls-28" cx="619.41" cy="166.93" rx="56.44" ry="57.26"/><ellipse class="cls-28" cx="620.07" cy="166.93" rx="87.2" ry="88.46"/><circle class="cls-29" cx="618.17" cy="169.18" r="129.76"/></svg>