<svg xmlns="http://www.w3.org/2000/svg" viewBox="0 0 1366 638.501">
  <defs>
    <style>
      .cls-1 {
        fill: #273f57;
      }
    </style>
  </defs>
  <path id="Subtraction_1" data-name="Subtraction 1" class="cls-1" d="M1492,638.5H126V37.091a18.928,18.928,0,0,0,1.732,4.8,53.221,53.221,0,0,0,9.127,12.754,119.347,119.347,0,0,0,22.42,18.226c11.44,7.422,25.44,14.561,41.611,21.217,41.163,16.943,96.47,30.9,164.384,41.489,84.893,13.233,189.838,21.205,311.918,23.693,16.377.334,32.905.5,49.124.5,114.786,0,226.468-8.4,331.942-24.965,84.379-13.253,165-31.731,239.614-54.923,29.313-9.111,57.76-18.98,84.55-29.334,21.431-8.283,41.856-16.892,60.707-25.589,16.769-7.737,29.165-14.113,36.61-18.1C1487.855,2.521,1491.961.024,1492,0V638.5Z" transform="translate(-126)"/>
</svg>
